<?xml version="1.0" encoding="UTF-8"?>
<svg id="Calque_2" data-name="Calque 2" xmlns="http://www.w3.org/2000/svg" viewBox="0 0 87.87 24.16">
  <defs>
    <style>
      .cls-1 {
        fill: #fffbdd;
      }

      .cls-2 {
        fill: #009f8a;
      }

      .cls-3 {
        fill: #fdb913;
      }

      .cls-4 {
        fill: #f58323;
      }
    </style>
  </defs>
  <g id="Layer_1" data-name="Layer 1">
    <g>
      <path class="cls-1" d="M16.11,17.91c.14-.19.22-.46.22-.81,0-.42-.04-.7-.12-.84-.08-.14-.21-.2-.4-.19-.08.01-.17.02-.26.04-.09.01-.18.02-.28.02-.35,0-.63-.12-.84-.35-.21-.23-.31-.6-.31-1.09V6.69c0-.46-.12-.8-.35-1.02-.23-.23-.57-.34-1.02-.34-.42,0-.75.11-.99.34-.24.23-.36.57-.36,1.02v8.11c0,1.17.26,2.06.79,2.64.53.59,1.32.88,2.39.88.16,0,.31,0,.47-.02.16-.01.29-.02.4-.04.3-.05.52-.17.67-.36Z"/>
      <path class="cls-1" d="M18.09,17.91c.49.28,1.11.41,1.85.41.67,0,1.25-.16,1.74-.49.34-.22.62-.51.85-.87,0,.42.13.75.36.97.24.23.57.35.99.35.87,0,1.31-.46,1.31-1.37v-6.38c0-.46-.12-.8-.35-1.02-.23-.23-.57-.34-1.02-.34-.42,0-.75.11-.99.34-.24.23-.36.57-.36,1.02v3.7c0,.6-.16,1.08-.49,1.45-.33.37-.76.55-1.29.55-.46,0-.79-.13-1.01-.4-.22-.26-.32-.65-.32-1.17v-4.14c0-.46-.12-.8-.36-1.02-.24-.23-.58-.34-1.01-.34s-.76.11-1,.34c-.23.23-.35.57-.35,1.02v4.08c0,.83.12,1.51.35,2.06.23.55.6.96,1.09,1.23Z"/>
      <path class="cls-1" d="M33.77,17.98c.21-.19.32-.43.32-.72,0-.29-.11-.58-.35-.86l-2.31-2.8,2.09-2.56c.25-.3.37-.59.36-.87-.01-.28-.12-.52-.31-.71-.2-.19-.46-.29-.8-.29s-.59.05-.8.16c-.21.11-.41.29-.6.54l-1.46,1.87-1.45-1.87c-.18-.25-.38-.43-.59-.54-.22-.11-.5-.16-.84-.16-.32,0-.59.09-.79.28-.2.19-.31.42-.32.7-.01.28.11.57.36.87l2.09,2.58-2.27,2.8c-.25.3-.37.59-.37.88,0,.29.11.52.32.71.21.19.48.28.8.28s.59-.06.81-.18c.22-.12.41-.29.59-.52l1.65-2.09,1.64,2.09c.19.24.4.42.61.53.22.11.49.17.81.17s.61-.1.82-.29Z"/>
      <path class="cls-1" d="M37.25,17.68l-.96,2.11c-.14.3-.19.58-.14.85.05.27.17.49.36.65.19.16.45.24.77.24s.61-.07.84-.21c.22-.14.42-.41.6-.82l4.22-9.58c.14-.31.19-.6.15-.86-.04-.26-.16-.48-.34-.64-.19-.16-.43-.24-.75-.24-.36,0-.64.07-.85.22-.21.15-.4.43-.57.84l-1.9,4.7-1.86-4.66c-.14-.44-.31-.74-.51-.88-.2-.14-.46-.22-.8-.22-.4,0-.7.08-.92.24s-.35.38-.4.65c-.05.27-.01.56.11.87l2.94,6.74Z"/>
      <path class="cls-1" d="M62.5,9.39c-.7-.37-1.53-.56-2.47-.56-.7,0-1.33.1-1.91.31-.58.21-1.08.52-1.49.92-.41.4-.73.88-.94,1.45-.22.56-.32,1.2-.32,1.91,0,.95.19,1.76.58,2.45.39.69.93,1.22,1.63,1.59.69.37,1.52.56,2.46.56.72,0,1.37-.11,1.94-.31.58-.21,1.07-.51,1.47-.91.41-.4.72-.88.94-1.46.22-.58.33-1.22.33-1.92,0-.93-.19-1.75-.58-2.44-.39-.69-.93-1.22-1.64-1.59ZM61.73,14.88c-.17.38-.4.67-.68.85-.29.19-.63.28-1.02.28-.58,0-1.04-.21-1.4-.63-.36-.42-.54-1.07-.54-1.96,0-.58.08-1.05.24-1.44.16-.38.39-.67.68-.84.29-.18.63-.27,1.02-.27.59,0,1.06.21,1.42.62s.54,1.06.54,1.93c0,.59-.08,1.07-.25,1.46Z"/>
      <path class="cls-1" d="M71.03,8.84c-.79.05-1.44.27-1.93.67-.34.27-.59.62-.76,1.05v-.31c0-.44-.11-.78-.34-1.02-.23-.23-.55-.35-.97-.35s-.76.12-1,.35-.35.57-.35,1.02v6.38c0,.44.12.78.36,1.02.24.23.59.35,1.04.35s.8-.12,1.02-.35c.23-.23.34-.57.34-1.02v-3.34c0-.64.16-1.12.49-1.46.33-.34.84-.53,1.52-.59l.41-.04c.41-.05.7-.18.87-.4.17-.22.25-.5.24-.86-.02-.41-.12-.7-.28-.87-.16-.17-.39-.25-.67-.22Z"/>
      <path class="cls-1" d="M86.11,10.46c-.22-.56-.55-.97-.99-1.23-.44-.26-1-.4-1.67-.4s-1.32.18-1.87.53c-.46.29-.81.67-1.07,1.13-.2-.51-.49-.9-.87-1.18-.46-.32-1.02-.49-1.71-.49s-1.28.17-1.78.5c-.38.25-.69.57-.92.96v-.06c0-.44-.11-.78-.34-1.02-.23-.23-.55-.35-.97-.35s-.76.12-1,.35c-.23.23-.35.57-.35,1.02v6.38c0,.44.12.78.36,1.02.24.23.57.35.99.35.91,0,1.37-.46,1.37-1.37v-3.61c0-.66.14-1.17.43-1.53.29-.36.69-.54,1.2-.54.43,0,.74.13.93.4.19.27.29.7.29,1.3v3.97c0,.44.12.78.36,1.02.24.23.58.35,1.01.35s.76-.12,1-.35c.23-.23.35-.57.35-1.02v-3.61c0-.66.14-1.17.43-1.53.29-.36.68-.54,1.19-.54.47,0,.79.13.97.4.18.27.27.7.27,1.3v3.97c0,.44.12.78.36,1.02.24.23.57.35.99.35.44,0,.78-.12,1.02-.35.23-.23.35-.57.35-1.02v-4.06c0-.84-.11-1.54-.32-2.09Z"/>
      <path class="cls-1" d="M3.41,20.87c-.66-.08-1.33-.32-1.92-.72C.48,19.46-.08,18.41,0,17.34c.14-1.71,1.36-3.43,3.1-4.39.1-.05.2-.11.3-.16.18-.1.25-.31.18-.5-.04-.11-.08-.22-.12-.32-.08-.2-.3-.31-.5-.23-.55.2-1.1.36-1.67.5-.47.11-.94-.2-1.02-.68l-.11-.66c-.07-.43.2-.85.63-.95.55-.13,1.09-.3,1.62-.51.17-.07.27-.25.24-.44-.08-.53-.13-1.04-.14-1.55-.05-2.4.77-4.61,2.25-6.07.66-.65,1.55-1.12,2.43-1.3,1.12-.22,2.14.04,2.88.74.78.74,1.13,1.89.93,3.09-.17,1.01-.68,1.85-1.1,2.47-1.11,1.62-2.54,2.98-4.18,4.01-.16.1-.23.29-.17.47.03.09.06.17.09.26.08.23.35.33.56.22.69-.36,1.35-.72,1.94-1.05.39-.22.89-.09,1.13.29l.35.56c.25.41.11.94-.3,1.17-.78.45-1.68.92-2.58,1.38.34.8.63,1.64.72,2.57.15,1.56-.45,3.5-2.11,4.31-.59.29-1.27.39-1.95.31ZM4.84,15.23c-.09-.24-.37-.35-.6-.23,0,0,0,0,0,0-.88.48-2.51,1.64-1.76,2.88.32.53,1.3.84,1.85.57.63-.31.88-1.23.81-1.98-.04-.41-.15-.82-.3-1.24ZM8.06,2.35c-.5-.06-1.2.26-1.65.7-1.03,1.01-1.59,2.59-1.55,4.34,0,.03,0,.05,0,.08,0,.28.33.43.55.26.99-.76,1.87-1.67,2.57-2.69.29-.42.63-.97.72-1.52.07-.4-.03-.8-.23-1-.1-.1-.24-.15-.4-.17Z"/>
      <path class="cls-1" d="M47.85,20.87c-.66-.08-1.33-.32-1.92-.72-1.02-.69-1.57-1.74-1.48-2.81.14-1.71,1.36-3.43,3.1-4.39.1-.05.2-.11.3-.16.18-.1.25-.31.18-.5-.04-.11-.08-.22-.12-.32-.08-.2-.3-.31-.5-.23-.55.2-1.1.36-1.67.5-.47.11-.94-.2-1.02-.68l-.11-.66c-.07-.43.2-.85.63-.95.55-.13,1.09-.3,1.62-.51.17-.07.27-.25.24-.44-.08-.53-.13-1.04-.14-1.55-.05-2.4.77-4.61,2.25-6.07.66-.65,1.55-1.12,2.43-1.3,1.12-.22,2.14.04,2.88.74.78.74,1.13,1.89.93,3.09-.17,1.01-.68,1.85-1.1,2.47-1.11,1.62-2.54,2.98-4.18,4.01-.16.1-.23.29-.17.47.03.09.06.17.09.26.08.23.35.33.56.22.69-.36,1.35-.72,1.94-1.05.39-.22.89-.09,1.13.29l.35.56c.25.41.11.94-.3,1.17-.78.45-1.68.92-2.58,1.38.34.8.63,1.64.72,2.57.15,1.56-.45,3.5-2.11,4.31-.59.29-1.27.39-1.95.31ZM49.28,15.23c-.09-.24-.37-.35-.6-.23,0,0,0,0,0,0-.88.48-2.51,1.64-1.76,2.88.32.53,1.3.84,1.85.57.63-.31.88-1.23.81-1.98-.04-.41-.15-.82-.3-1.24ZM52.5,2.35c-.5-.06-1.2.26-1.65.7-1.03,1.01-1.59,2.59-1.55,4.34,0,.03,0,.05,0,.08,0,.28.33.43.55.26.99-.76,1.87-1.67,2.57-2.69.29-.42.63-.97.72-1.52.07-.4-.03-.8-.23-1-.1-.1-.24-.15-.4-.17Z"/>
      <rect class="cls-3" x="50.63" y="21.56" width="6.19" height="2.59" rx="1.3" ry="1.3"/>
      <rect class="cls-4" x="58.4" y="21.56" width="6.19" height="2.59" rx="1.3" ry="1.3"/>
      <rect class="cls-2" x="66.16" y="21.56" width="6.19" height="2.59" rx="1.3" ry="1.3"/>
      <rect class="cls-4" x="73.92" y="21.56" width="6.19" height="2.59" rx="1.3" ry="1.3"/>
      <rect class="cls-3" x="81.68" y="21.56" width="6.19" height="2.59" rx="1.3" ry="1.3"/>
    </g>
  </g>
</svg>