<?xml version="1.0" encoding="UTF-8"?>
<svg id="Layer_1" xmlns="http://www.w3.org/2000/svg" version="1.1" viewBox="0 0 100 100">
  <!-- Generator: Adobe Illustrator 29.8.2, SVG Export Plug-In . SVG Version: 2.1.1 Build 3)  -->
  <defs>
    <style>
      .st0 {
        fill: #101940;
      }

      .st1 {
        fill: #009e89;
      }

      .st2 {
        fill: #fcb813;
      }
    </style>
  </defs>
  <rect class="st0" x="-.02" y="-.02" width="100.04" height="100.04"/>
  <g>
    <path class="st2" d="M36.98,51.75c4.91-3.1,9.26-7.26,12.56-12.04,1.24-1.81,2.73-4.26,3.2-7.19.56-3.3-.39-6.5-2.55-8.55-1.56-1.46-3.57-2.22-5.83-2.22-.69,0-1.4.07-2.12.21-2.51.5-5.03,1.85-6.92,3.71-4.39,4.31-6.81,10.84-6.64,17.94.03,1.5.17,3.05.43,4.6.16,1.09-.41,2.13-1.4,2.51-1.6.64-3.29,1.17-5.17,1.61-.71.19-1.22.99-1.1,1.73l.33,2.02c.12.75.75,1.3,1.51,1.3.11,0,.23-.01.33-.04,1.82-.42,3.46-.92,5.03-1.51.26-.09.53-.14.8-.14.95,0,1.79.58,2.13,1.48v.04c.14.38.25.65.36.9l.02.04c.43,1.08,0,2.31-1.03,2.87-.17.1-.33.18-.49.27-.15.08-.28.15-.41.22l-.04.02c-5.06,2.75-8.6,7.72-9.01,12.65-.23,2.91,1.3,5.79,4.09,7.71,1.65,1.11,3.53,1.82,5.46,2.05.44.06.88.08,1.3.08,1.47,0,2.85-.31,4.11-.93,4.7-2.29,6.36-7.78,5.92-12.21-.18-1.92-.67-3.88-1.51-6.01-.55-1.47.11-3.1,1.53-3.79,3-1.29,5.88-2.6,8.61-3.93-1.66-1.28-2.12-3.35-2.24-4.67-2.89,1.42-5.81,2.77-8.75,4.02-.33.17-.69.26-1.06.26-.94,0-1.8-.59-2.15-1.48v-.03s-.02-.03-.02-.03c-.04-.12-.09-.23-.13-.35-.06-.15-.12-.3-.17-.45-.34-1.02.07-2.15.99-2.7ZM36.79,71.36c.36,3.53-1.27,6.28-3.09,7.17-.56.27-1.21.41-1.94.41-2.08,0-4.24-1.08-5.15-2.56-.74-1.22-.93-2.51-.57-3.84.48-1.78,1.81-3.22,3.19-4.37.64-.53,1.32-1.02,2.03-1.47.7-.44,1.42-.96,2.28-.98,1.01-.02,1.93.58,2.28,1.53.54,1.48.86,2.82.98,4.11ZM33.77,43.75v-.29c-.12-5.7,1.74-10.85,5.11-14.13,1.49-1.49,3.69-2.5,5.47-2.5.17,0,.34.01.52.03.76.09,1.36.36,1.82.82.9.83,1.3,2.4,1.03,3.99-.29,1.86-1.37,3.65-2.4,5.14-2.19,3.23-4.93,6.11-8.14,8.54-.37.28-.8.43-1.26.43-1.14,0-2.11-.91-2.15-2.04Z"/>
    <path class="st1" d="M78.64,48.47l-1.39-1.48c-.29-.31-.69-.48-1.12-.48-.37,0-.72.13-.99.36-1.58,1.35-3.41,2.85-5.29,4.34-.4.33-.91.52-1.43.52-.8,0-1.54-.42-1.96-1.11l-.45-.73c-.55-.93-.37-2.09.42-2.82,4.33-4.12,7.7-8.93,10.01-14.29.87-2,1.86-4.67,1.78-7.66-.11-3.36-1.67-6.31-4.18-7.9-1.31-.82-2.77-1.24-4.35-1.24-1.25,0-2.54.27-3.82.79-2.38.99-4.6,2.82-6.11,5.01-3.46,5.08-4.57,11.95-3.04,18.85.35,1.51.79,2.97,1.32,4.46.4,1.04,0,2.19-.93,2.74l-.03.02c-2.74,1.54-5.51,3-8.3,4.39-.17.08-.34.17-.5.25.12,1.32.57,3.39,2.24,4.67.24-.12.48-.23.72-.35,2.8-1.38,5.44-2.78,7.89-4.21.34-.19.72-.29,1.11-.29.79,0,1.51.39,1.94,1.05.17.25.32.5.45.72.04.07.09.15.13.22.63.97.44,2.24-.45,2.98-.14.12-.27.23-.41.35-.13.1-.25.21-.37.32l-.03.02c-4.44,3.69-6.96,9.25-6.4,14.16.34,2.92,2.41,5.45,5.51,6.78,1.54.64,3.23.99,4.88.99.29,0,.59-.01.87-.03,1.96-.16,3.75-.82,5.16-1.89,4.13-3.14,4.71-8.87,3.45-13.15-.84-2.8-2.29-5.14-3.59-7.05l-.56-.83.79-.61c2.85-2.23,5.13-4.1,6.97-5.7.32-.29.5-.67.52-1.08.02-.4-.13-.79-.41-1.09ZM61.77,39.84c-.03-.08-.07-.21-.09-.38-1.22-5.54-.39-10.93,2.28-14.79,1.32-1.97,3.54-3.44,5.41-3.58.08,0,.16,0,.24,0,.62,0,1.19.15,1.68.45,1.04.63,1.74,2.06,1.82,3.74v.03c.03,1.98-.76,4.08-1.36,5.48-1.53,3.55-3.67,6.89-6.35,9.95-.4.44-.97.69-1.56.69-.99,0-1.82-.65-2.06-1.58ZM68.39,73.94c-.76.58-1.84.9-3.04.9-1.73,0-3.39-.63-4.32-1.65-.96-1.06-1.41-2.3-1.32-3.68.13-1.96,1.29-3.74,2.53-5.2.98-1.15,2.42-3,4.08-2.97.8.01,1.55.43,1.96,1.14.86,1.43,1.42,2.65,1.76,3.82.74,2.51.53,5.98-1.65,7.64Z"/>
  </g>
</svg>