<?xml version="1.0" encoding="UTF-8"?>
<svg id="Layer_1" xmlns="http://www.w3.org/2000/svg" version="1.1" viewBox="0 0 100 100">
  <!-- Generator: Adobe Illustrator 29.8.2, SVG Export Plug-In . SVG Version: 2.1.1 Build 3)  -->
  <defs>
    <style>
      .st0 {
        fill: #009e89;
      }

      .st1 {
        fill: #fcb813;
      }
    </style>
  </defs>
  <path class="st1" d="M30.86,52.57c7.22-4.55,13.61-10.67,18.46-17.7,1.83-2.66,4.01-6.26,4.71-10.56.83-4.85-.58-9.55-3.75-12.56-2.29-2.14-5.25-3.27-8.57-3.27-1.01,0-2.06.1-3.11.31-3.69.73-7.39,2.72-10.17,5.46-6.45,6.33-10.01,15.93-9.76,26.36.04,2.21.25,4.48.63,6.76.24,1.61-.61,3.13-2.05,3.69-2.35.94-4.83,1.72-7.6,2.37-1.04.28-1.79,1.46-1.62,2.54l.48,2.97c.17,1.1,1.1,1.9,2.22,1.9.17,0,.34-.02.49-.05,2.67-.62,5.09-1.35,7.39-2.21.38-.14.77-.21,1.17-.21,1.4,0,2.64.85,3.14,2.17l.02.06c.19.56.34.96.51,1.33l.03.07c.64,1.59-.01,3.4-1.51,4.21-.24.14-.49.27-.72.39-.22.11-.42.22-.6.33l-.06.03c-7.44,4.05-12.64,11.35-13.25,18.6-.35,4.28,1.91,8.51,6.02,11.33,2.42,1.64,5.19,2.68,8.02,3.01.64.08,1.29.12,1.92.12,2.16,0,4.19-.46,6.04-1.36,6.9-3.37,9.35-11.44,8.7-17.94-.26-2.82-.98-5.7-2.21-8.82-.81-2.16.16-4.56,2.25-5.57,4.41-1.9,8.64-3.82,12.65-5.78-2.44-1.88-3.12-4.93-3.29-6.87-4.25,2.09-8.54,4.07-12.86,5.91-.48.25-1.01.39-1.55.39-1.38,0-2.64-.87-3.15-2.17v-.04s-.03-.04-.03-.04c-.06-.17-.13-.34-.19-.51-.09-.22-.17-.44-.24-.66-.5-1.5.11-3.16,1.45-3.97ZM30.58,81.38c.53,5.19-1.87,9.23-4.54,10.54-.82.4-1.79.6-2.85.6-3.05,0-6.23-1.58-7.57-3.77-1.08-1.79-1.36-3.69-.84-5.64.7-2.61,2.66-4.74,4.69-6.43.94-.78,1.95-1.5,2.98-2.16,1.03-.65,2.09-1.41,3.35-1.43,1.48-.03,2.84.85,3.35,2.26.79,2.17,1.26,4.15,1.44,6.03ZM26.15,40.81v-.43c-.18-8.38,2.56-15.95,7.51-20.76,2.2-2.19,5.42-3.67,8.03-3.67.25,0,.51.02.76.04,1.12.14,1.99.53,2.68,1.2,1.32,1.22,1.91,3.53,1.51,5.86-.43,2.74-2.02,5.36-3.52,7.56-3.23,4.75-7.25,8.97-11.96,12.55-.54.41-1.18.63-1.85.63-1.68,0-3.1-1.34-3.16-2.99Z"/>
  <path class="st0" d="M92.08,47.75l-2.05-2.18c-.43-.46-1.02-.71-1.65-.71-.54,0-1.06.19-1.46.52-2.32,1.98-5.01,4.19-7.77,6.38-.59.49-1.34.76-2.11.76-1.17,0-2.27-.62-2.88-1.64l-.67-1.07c-.8-1.36-.54-3.07.62-4.15,6.37-6.06,11.31-13.12,14.7-20.99,1.28-2.93,2.74-6.86,2.61-11.25-.16-4.94-2.46-9.28-6.15-11.61-1.92-1.21-4.08-1.82-6.4-1.82-1.84,0-3.73.39-5.61,1.16-3.49,1.46-6.76,4.14-8.97,7.36-5.09,7.46-6.71,17.57-4.47,27.7.52,2.21,1.16,4.36,1.95,6.56.58,1.53,0,3.22-1.37,4.03l-.05.03c-4.03,2.26-8.09,4.41-12.19,6.45-.25.12-.49.24-.74.37.17,1.94.84,4.99,3.29,6.87.35-.17.7-.35,1.05-.51,4.11-2.03,7.99-4.09,11.6-6.18.5-.28,1.06-.42,1.63-.42,1.16,0,2.22.58,2.85,1.54.25.36.47.73.66,1.06.07.11.13.22.19.32.93,1.43.65,3.29-.66,4.38-.2.18-.4.35-.6.51-.19.15-.37.3-.55.47l-.04.03c-6.53,5.42-10.23,13.6-9.41,20.81.5,4.29,3.54,8.01,8.1,9.97,2.26.95,4.74,1.45,7.17,1.45.43,0,.87-.02,1.28-.04,2.88-.24,5.51-1.2,7.58-2.78,6.07-4.61,6.92-13.03,5.06-19.32-1.24-4.11-3.36-7.55-5.28-10.37l-.83-1.21,1.15-.9c4.19-3.28,7.54-6.03,10.24-8.38.47-.42.74-.99.77-1.59.03-.59-.19-1.16-.61-1.6ZM67.3,35.06c-.04-.12-.11-.31-.14-.56-1.8-8.14-.58-16.06,3.35-21.74,1.95-2.89,5.2-5.05,7.95-5.26.12,0,.24,0,.35,0,.92,0,1.75.23,2.47.67,1.53.92,2.56,3.03,2.68,5.5v.04c.05,2.91-1.12,5.99-2,8.05-2.26,5.22-5.39,10.13-9.33,14.62-.58.65-1.42,1.02-2.3,1.02-1.45,0-2.68-.95-3.02-2.32ZM77.03,85.19c-1.12.85-2.7,1.32-4.47,1.32-2.55,0-4.98-.93-6.35-2.43-1.42-1.56-2.07-3.38-1.93-5.41.19-2.88,1.89-5.5,3.72-7.64,1.45-1.7,3.55-4.4,6-4.36,1.18.02,2.28.64,2.87,1.67,1.26,2.1,2.08,3.89,2.59,5.62,1.08,3.7.78,8.78-2.43,11.22Z"/>
</svg>