<svg width="56" height="56" viewBox="0 0 56 56" fill="none" xmlns="http://www.w3.org/2000/svg">
<path d="M21.9857 41.4205L16.2244 35.3804C15.0102 34.1075 15.9125 32 17.6716 32H39.5946C41.3126 32 42.231 34.0231 41.1002 35.3165L35.7508 41.4346C35.4321 41.7991 35.2564 42.2669 35.2564 42.7511V48C35.2564 49.1046 34.361 50 33.2564 50H24.5385C23.4339 50 22.5385 49.1046 22.5385 48V42.8009C22.5385 42.2868 22.3405 41.7925 21.9857 41.4205Z" fill="#262E5B" stroke="#FDB913"/>
<path d="M18 29C18 29.2761 18.2239 29.5 18.5 29.5C18.7761 29.5 19 29.2761 19 29H18.5H18ZM11 8.5H10.5V15H11H11.5V8.5H11ZM14 18V18.5H15.5V18V17.5H14V18ZM18.5 21H18V29H18.5H19V21H18.5ZM15.5 18V18.5C16.8807 18.5 18 19.6193 18 21H18.5H19C19 19.067 17.433 17.5 15.5 17.5V18ZM11 15H10.5C10.5 16.933 12.067 18.5 14 18.5V18V17.5C12.6193 17.5 11.5 16.3807 11.5 15H11Z" fill="#F58323"/>
<path d="M23.5 29C23.5 29.2761 23.7239 29.5 24 29.5C24.2761 29.5 24.5 29.2761 24.5 29H24H23.5ZM16.5 4.5H16V11H16.5H17V4.5H16.5ZM19.5 14V14.5H21V14V13.5H19.5V14ZM24 17H23.5V29H24H24.5V17H24ZM21 14V14.5C22.3807 14.5 23.5 15.6193 23.5 17H24H24.5C24.5 15.067 22.933 13.5 21 13.5V14ZM16.5 11H16C16 12.933 17.567 14.5 19.5 14.5V14V13.5C18.1193 13.5 17 12.3807 17 11H16.5Z" fill="#009F8A"/>
<path d="M29 29C29 28.2 29 10.6667 29 2" stroke="#BB3F3F"/>
<path d="M34.5 29C34.5 29.2761 34.2761 29.5 34 29.5C33.7239 29.5 33.5 29.2761 33.5 29H34H34.5ZM41.5 4H42V10.5H41.5H41V4H41.5ZM38.5 13.5V14H37V13.5V13H38.5V13.5ZM34 16.5H34.5V29H34H33.5V16.5H34ZM37 13.5V14C35.6193 14 34.5 15.1193 34.5 16.5H34H33.5C33.5 14.567 35.067 13 37 13V13.5ZM41.5 10.5H42C42 12.433 40.433 14 38.5 14V13.5V13C39.8807 13 41 11.8807 41 10.5H41.5Z" fill="#009F8A"/>
<path d="M40 29C40 29.2761 39.7761 29.5 39.5 29.5C39.2239 29.5 39 29.2761 39 29H39.5H40ZM47 8.5H47.5V15H47H46.5V8.5H47ZM44 18V18.5H42.5V18V17.5H44V18ZM39.5 21H40V29H39.5H39V21H39.5ZM42.5 18V18.5C41.1193 18.5 40 19.6193 40 21H39.5H39C39 19.067 40.567 17.5 42.5 17.5V18ZM47 15H47.5C47.5 16.933 45.933 18.5 44 18.5V18V17.5C45.3807 17.5 46.5 16.3807 46.5 15H47Z" fill="#F58323"/>
</svg>
