<svg width="56" height="56" viewBox="0 0 56 56" fill="none" xmlns="http://www.w3.org/2000/svg">
<rect x="21.5" y="6.5" width="26" height="17" rx="3.5" fill="#262E5B" stroke="#BB3F3F"/>
<rect x="21.5" y="31.5" width="26" height="17" rx="3.5" fill="#262E5B" stroke="#F58323"/>
<path d="M22.8594 7.5C26.3467 10.5 32.8775 16.0008 34.5514 16.0008C36.2253 16.0008 42.7092 10.6437 45.9972 7.64369" stroke="#BB3F3F"/>
<path d="M23 32C26.4873 35 33.8803 41 35.5542 41C37.2281 41 43.712 35.6429 47 32.6429" stroke="#F58323"/>
<rect x="7.5" y="19.5" width="26" height="17" rx="3.5" fill="#262E5B" stroke="#FDB913"/>
<path d="M9 20.5761C12.4146 22.9094 18.6537 28.9991 20.2927 28.9991C21.9317 28.9991 28.7805 22.6224 32 20.2891" stroke="#FDB913"/>
<circle cx="47" cy="22" r="5" fill="#BB3F3F"/>
<circle cx="8" cy="37" r="5" fill="#009F8A"/>
<path d="M49.2031 19.7773L44.7972 24.1873" stroke="white"/>
<path d="M49.1641 24.2227L44.7617 19.8203" stroke="white"/>
<circle cx="47" cy="46" r="5" fill="#F58323"/>
<path d="M49.1837 45.0821L45.0049 45.0967" stroke="white"/>
<path d="M49.1837 47.0821L45.0049 47.0967" stroke="white"/>
<path d="M10.4979 35L7.4979 39.3331L5.5 38" stroke="white"/>
</svg>
