<svg width="56" height="56" viewBox="0 0 56 56" fill="none" xmlns="http://www.w3.org/2000/svg">
<path d="M22.5 41.5L15 38.5" stroke="#FDB913"/>
<path d="M11.5 34.5L8.5 28" stroke="#FDB913"/>
<path d="M16.7016 23.4017L10 25.7656" stroke="#FDB913"/>
<path d="M31.5 23L22.5 23" stroke="#FDB913"/>
<path d="M46.5 27.5L36.5 24" stroke="#FDB913"/>
<path d="M40.5 36.5L31 32.4121" stroke="#FDB913"/>
<path d="M35.5015 12.5L34.5 21" stroke="#FDB913"/>
<path d="M46.5 16L48.5 26" stroke="#FDB913"/>
<path d="M47.5 31L44.5 36" stroke="#FDB913"/>
<path d="M41.5859 40L38 44.5" stroke="#FDB913"/>
<path d="M19.3594 25L14.5 34.5" stroke="#FDB913"/>
<path d="M32.9925 25.5011L29.9999 30.9997" stroke="#FDB913"/>
<path d="M28 35L26.3359 41" stroke="#FDB913"/>
<path d="M26.4981 32.5008L15.0034 36.0001" stroke="#FDB913"/>
<path d="M33.9953 45.4997L26.9988 44.4548" stroke="#FDB913"/>
<path d="M10.5527 16.8161L8.53125 23.6289" stroke="#FDB913"/>
<path d="M21.5 10.5L14 12.8027" stroke="#FDB913"/>
<path d="M33.5 10L26.5 10" stroke="#FDB913"/>
<path d="M23.5 12.5L20.6875 21.0801" stroke="#FDB913"/>
<path d="M42.5 13C39.7663 11.8284 41.2337 12.6716 38.5 11.5" stroke="#FDB913"/>
<circle cx="25" cy="43" r="2.5" stroke="#F58323"/>
<circle cx="13" cy="37" r="2.5" stroke="#009F8A"/>
<circle cx="19.5673" cy="22.8402" r="2.5" transform="rotate(-70.1401 19.5673 22.8402)" stroke="#F58323"/>
<circle cx="28.8407" cy="32.8402" r="2.5" transform="rotate(-70.1401 28.8407 32.8402)" stroke="#BB3F3F"/>
<circle cx="42.8407" cy="37.8402" r="2.5" transform="rotate(-70.1401 42.8407 37.8402)" stroke="#009F8A"/>
<circle cx="48.8407" cy="28.8402" r="2.5" transform="rotate(-70.1401 48.8407 28.8402)" stroke="#F58323"/>
<circle cx="35.8407" cy="45.8402" r="2.5" transform="rotate(-70.1401 35.8407 45.8402)" stroke="white"/>
<circle cx="34.1734" cy="23.1733" r="2.5" transform="rotate(-34.6371 34.1734 23.1733)" stroke="#009F8A"/>
<circle cx="11.7805" cy="14.1667" r="2.5" transform="rotate(-124.184 11.7805 14.1667)" stroke="white"/>
<circle cx="23.9879" cy="10.1512" r="2.5" transform="rotate(-56.8644 23.9879 10.1512)" stroke="#009F8A"/>
<circle cx="35.9371" cy="10.2415" r="2.5" transform="rotate(-46.1699 35.9371 10.2415)" stroke="#BB3F3F"/>
<circle cx="45.2418" cy="14.2415" r="2.5" transform="rotate(-46.1699 45.2418 14.2415)" stroke="white"/>
<circle cx="7.84074" cy="25.8402" r="2.5" transform="rotate(-70.1401 7.84074 25.8402)" stroke="#BB3F3F"/>
</svg>
