<svg width="56" height="56" viewBox="0 0 56 56" fill="none" xmlns="http://www.w3.org/2000/svg">
<rect x="5.5" y="42.5" width="9" height="4" rx="2" fill="#262E5B" stroke="#BB3F3F"/>
<rect x="17.5" y="36.5" width="9" height="10" rx="2.5" fill="#262E5B" stroke="#F58323"/>
<rect x="29.5" y="28.5" width="9" height="18" rx="2.5" fill="#262E5B" stroke="#FDB913"/>
<rect x="41.5" y="20.5" width="9" height="26" rx="2.5" fill="#262E5B" stroke="#009F8A"/>
<circle cx="46" cy="11" r="4.5" fill="#009F8A" stroke="white"/>
<path d="M46.051 15C45.9398 15 45.8487 14.9579 45.778 14.8738C45.7072 14.7953 45.6718 14.6972 45.6718 14.5794V13.8307L45.8462 14.0158C45.4974 14.0046 45.1864 13.9541 44.9134 13.8644C44.6455 13.7746 44.4179 13.6709 44.2309 13.5531C44.1399 13.4914 44.0767 13.4157 44.0413 13.326C44.0059 13.2306 43.9933 13.1353 44.0034 13.04C44.0135 12.9446 44.0438 12.8633 44.0944 12.796C44.15 12.7231 44.2182 12.6782 44.2991 12.6614C44.38 12.639 44.4736 12.6614 44.5797 12.7287C44.7213 12.8184 44.9058 12.9054 45.1333 12.9895C45.3659 13.068 45.644 13.1073 45.9676 13.1073C46.2203 13.1073 46.4251 13.0736 46.5818 13.0063C46.7386 12.939 46.8523 12.8465 46.9231 12.7287C46.9989 12.6109 47.0369 12.4763 47.0369 12.3249C47.0369 12.2015 47.0116 12.095 46.961 12.0053C46.9105 11.9099 46.827 11.8286 46.7108 11.7613C46.5945 11.6884 46.4378 11.6295 46.2406 11.5846L45.4367 11.3912C44.9766 11.279 44.6328 11.0911 44.4053 10.8276C44.1778 10.564 44.064 10.2191 44.064 9.79285C44.064 9.46197 44.1373 9.16754 44.284 8.90957C44.4306 8.64599 44.6353 8.43568 44.8983 8.27865C45.1612 8.12163 45.4696 8.02909 45.8235 8.00105L45.6718 8.12723V7.42061C45.6718 7.30284 45.7072 7.2047 45.778 7.12618C45.8487 7.04206 45.9398 7 46.051 7C46.1572 7 46.2456 7.04206 46.3164 7.12618C46.3922 7.2047 46.4302 7.30284 46.4302 7.42061V8.12723L46.2709 7.99264C46.4883 7.99825 46.7259 8.04592 46.9838 8.13565C47.2467 8.22538 47.4717 8.35156 47.6587 8.5142C47.7346 8.58149 47.7851 8.66001 47.8104 8.74974C47.8357 8.83386 47.8382 8.91798 47.818 9.0021C47.7978 9.08062 47.7598 9.14791 47.7042 9.204C47.6486 9.26008 47.5778 9.29373 47.4919 9.30494C47.411 9.31055 47.3175 9.27971 47.2113 9.21241C47.0647 9.11707 46.9004 9.04136 46.7183 8.98528C46.5363 8.92359 46.3189 8.89274 46.0661 8.89274C45.7426 8.89274 45.4873 8.97406 45.3002 9.1367C45.1182 9.29373 45.0272 9.50123 45.0272 9.7592C45.0272 9.94988 45.0828 10.1041 45.194 10.2219C45.3052 10.334 45.4948 10.4238 45.7628 10.4911L46.5894 10.693C47.0748 10.8107 47.4312 10.9986 47.6587 11.2566C47.8862 11.5089 48 11.8426 48 12.2576C48 12.5829 47.9267 12.8717 47.7801 13.1241C47.6335 13.3708 47.4312 13.5699 47.1734 13.7213C46.9206 13.8672 46.6248 13.9597 46.2861 13.9989L46.4302 13.8223V14.5794C46.4302 14.6972 46.3948 14.7953 46.324 14.8738C46.2532 14.9579 46.1622 15 46.051 15Z" fill="white"/>
</svg>
