<svg width="56" height="56" viewBox="0 0 56 56" fill="none" xmlns="http://www.w3.org/2000/svg">
<g clip-path="url(#clip0_161_1563)">
<path d="M18 31C18 31.2761 18.2239 31.5 18.5 31.5C18.7761 31.5 19 31.2761 19 31H18.5H18ZM11 10.5H10.5L10.5 17H11H11.5L11.5 10.5H11ZM14 20V20.5H15.5V20V19.5H14V20ZM18.5 23H18L18 31H18.5H19L19 23H18.5ZM15.5 20V20.5C16.8807 20.5 18 21.6193 18 23H18.5H19C19 21.067 17.433 19.5 15.5 19.5V20ZM11 17H10.5C10.5 18.933 12.067 20.5 14 20.5V20V19.5C12.6193 19.5 11.5 18.3807 11.5 17H11Z" fill="#BB3F3F"/>
<path d="M23.5 31C23.5 31.2761 23.7239 31.5 24 31.5C24.2761 31.5 24.5 31.2761 24.5 31H24H23.5ZM16.5 6.5H16L16 13H16.5H17V6.5H16.5ZM19.5 16V16.5H21V16V15.5H19.5V16ZM24 19H23.5L23.5 31H24H24.5L24.5 19H24ZM21 16V16.5C22.3807 16.5 23.5 17.6193 23.5 19H24H24.5C24.5 17.067 22.933 15.5 21 15.5V16ZM16.5 13H16C16 14.933 17.567 16.5 19.5 16.5V16V15.5C18.1193 15.5 17 14.3807 17 13H16.5Z" fill="#F58323"/>
<path d="M29 31C29 30.2 29 12.6667 29 4" stroke="#009F8A"/>
<path d="M34.5 31C34.5 31.2761 34.2761 31.5 34 31.5C33.7239 31.5 33.5 31.2761 33.5 31H34H34.5ZM41.5 6H42V12.5H41.5H41V6H41.5ZM38.5 15.5V16H37V15.5V15H38.5V15.5ZM34 18.5H34.5L34.5 31H34H33.5V18.5H34ZM37 15.5V16C35.6193 16 34.5 17.1193 34.5 18.5H34H33.5C33.5 16.567 35.067 15 37 15V15.5ZM41.5 12.5H42C42 14.433 40.433 16 38.5 16V15.5V15C39.8807 15 41 13.8807 41 12.5H41.5Z" fill="#F58323"/>
<path d="M40 31C40 31.2761 39.7761 31.5 39.5 31.5C39.2239 31.5 39 31.2761 39 31H39.5H40ZM47 10.5H47.5V17H47H46.5V10.5H47ZM44 20V20.5H42.5V20V19.5H44V20ZM39.5 23H40V31H39.5H39V23H39.5ZM42.5 20V20.5C41.1193 20.5 40 21.6193 40 23H39.5H39C39 21.067 40.567 19.5 42.5 19.5V20ZM47 17H47.5C47.5 18.933 45.933 20.5 44 20.5V20V19.5C45.3807 19.5 46.5 18.3807 46.5 17H47Z" fill="#BB3F3F"/>
<rect x="12.5" y="23.5" width="17.6667" height="10.6667" rx="1.5" fill="#262E5B" stroke="#BB3F3F"/>
<path d="M13.5859 23.6445C16.0833 25.9163 20.1316 30.0001 21.2956 30.0001C22.4595 30.0001 26.6783 25.5198 28.9646 23.6445" stroke="#BB3F3F"/>
<rect x="28.5" y="27.5" width="17.6667" height="10.6667" rx="1.5" fill="#262E5B" stroke="#F58323"/>
<path d="M29.5859 27.6445C32.0833 29.9163 36.1316 34.0001 37.2956 34.0001C38.4595 34.0001 42.6783 29.5198 44.9646 27.6445" stroke="#F58323"/>
<rect x="20.5" y="37.666" width="17.6667" height="10.6667" rx="1.5" fill="#262E5B" stroke="#009F8A"/>
<path d="M21.5859 37.8125C24.0833 40.0843 28.1316 44.1681 29.2956 44.1681C30.4595 44.1681 34.6783 39.6877 36.9646 37.8125" stroke="#009F8A"/>
<circle cx="39" cy="37" r="5" fill="#009F8A"/>
<path d="M41.4979 35L38.4979 39.3331L36.5 38" stroke="white"/>
<circle cx="12" cy="34" r="5" fill="#BB3F3F"/>
<path d="M14.1875 31.7773L9.78156 36.1873" stroke="white"/>
<path d="M14.1484 36.2227L9.74608 31.8203" stroke="white"/>
</g>
<defs>
<clipPath id="clip0_161_1563">
<rect width="56" height="56" fill="white"/>
</clipPath>
</defs>
</svg>
