<svg width="56" height="56" viewBox="0 0 56 56" fill="none" xmlns="http://www.w3.org/2000/svg">
<g clip-path="url(#clip0_155_1307)">
<path d="M30 38C30.2761 38 30.5 37.7761 30.5 37.5C30.5 37.2239 30.2761 37 30 37L30 37.5L30 38ZM9.5 45L9.5 45.5L16 45.5L16 45L16 44.5L9.5 44.5L9.5 45ZM19 42L19.5 42L19.5 40.5L19 40.5L18.5 40.5L18.5 42L19 42ZM22 37.5L22 38L30 38L30 37.5L30 37L22 37L22 37.5ZM19 40.5L19.5 40.5C19.5 39.1193 20.6193 38 22 38L22 37.5L22 37C20.067 37 18.5 38.567 18.5 40.5L19 40.5ZM16 45L16 45.5C17.933 45.5 19.5 43.933 19.5 42L19 42L18.5 42C18.5 43.3807 17.3807 44.5 16 44.5L16 45Z" fill="#F58323"/>
<path d="M30 32.5C30.2761 32.5 30.5 32.2761 30.5 32C30.5 31.7239 30.2761 31.5 30 31.5L30 32L30 32.5ZM5.5 39.5L5.5 40L12 40L12 39.5L12 39L5.5 39L5.5 39.5ZM15 36.5L15.5 36.5L15.5 35L15 35L14.5 35L14.5 36.5L15 36.5ZM18 32L18 32.5L30 32.5L30 32L30 31.5L18 31.5L18 32ZM15 35L15.5 35C15.5 33.6193 16.6193 32.5 18 32.5L18 32L18 31.5C16.067 31.5 14.5 33.067 14.5 35L15 35ZM12 39.5L12 40C13.933 40 15.5 38.433 15.5 36.5L15 36.5L14.5 36.5C14.5 37.8807 13.3807 39 12 39L12 39.5Z" fill="#009F8A"/>
<path d="M30 27C29.2 27 11.6667 27 3 27" stroke="#FDB913"/>
<path d="M30 21.5C30.2761 21.5 30.5 21.7239 30.5 22C30.5 22.2761 30.2761 22.5 30 22.5L30 22L30 21.5ZM5 14.5L5 14L11.5 14L11.5 14.5L11.5 15L5 15L5 14.5ZM14.5 17.5L15 17.5L15 19L14.5 19L14 19L14 17.5L14.5 17.5ZM17.5 22L17.5 21.5L30 21.5L30 22L30 22.5L17.5 22.5L17.5 22ZM14.5 19L15 19C15 20.3807 16.1193 21.5 17.5 21.5L17.5 22L17.5 22.5C15.567 22.5 14 20.933 14 19L14.5 19ZM11.5 14.5L11.5 14C13.433 14 15 15.567 15 17.5L14.5 17.5L14 17.5C14 16.1193 12.8807 15 11.5 15L11.5 14.5Z" fill="#009F8A"/>
<path d="M30 16C30.2761 16 30.5 16.2239 30.5 16.5C30.5 16.7761 30.2761 17 30 17L30 16.5L30 16ZM9.5 9L9.5 8.5L16 8.5L16 9L16 9.5L9.5 9.5L9.5 9ZM19 12L19.5 12L19.5 13.5L19 13.5L18.5 13.5L18.5 12L19 12ZM22 16.5L22 16L30 16L30 16.5L30 17L22 17L22 16.5ZM19 13.5L19.5 13.5C19.5 14.8807 20.6193 16 22 16L22 16.5L22 17C20.067 17 18.5 15.433 18.5 13.5L19 13.5ZM16 9L16 8.5C17.933 8.5 19.5 10.067 19.5 12L19 12L18.5 12C18.5 10.6193 17.3807 9.5 16 9.5L16 9Z" fill="#F58323"/>
<rect x="25.5" y="29.834" width="17.6667" height="10.6667" rx="1.5" fill="#262E5B" stroke="#009F8A"/>
<path d="M26.5859 29.9785C29.0833 32.2503 33.1316 36.3341 34.2956 36.3341C35.4595 36.3341 39.6783 31.8538 41.9646 29.9785" stroke="#009F8A"/>
<rect x="25.5" y="13.5" width="17.6667" height="10.6667" rx="1.5" fill="#262E5B" stroke="#009F8A"/>
<path d="M26.5859 13.6445C29.0833 15.9163 33.1316 20.0001 34.2956 20.0001C35.4595 20.0001 39.6783 15.5198 41.9646 13.6445" stroke="#009F8A"/>
<rect x="32.5" y="21.666" width="17.6667" height="10.6667" rx="1.5" fill="#262E5B" stroke="#FDB913"/>
<path d="M33.5859 21.8125C36.0833 24.0843 40.1316 28.1681 41.2956 28.1681C42.4595 28.1681 46.6783 23.6877 48.9646 21.8125" stroke="#FDB913"/>
</g>
<defs>
<clipPath id="clip0_155_1307">
<rect width="56" height="56" fill="white"/>
</clipPath>
</defs>
</svg>
