<svg width="56" height="56" viewBox="0 0 56 56" fill="none" xmlns="http://www.w3.org/2000/svg">
<path d="M18 27C18 27.2761 18.2239 27.5 18.5 27.5C18.7761 27.5 19 27.2761 19 27H18.5H18ZM11 6.5H10.5V13H11H11.5V6.5H11ZM14 16V16.5H15.5V16V15.5H14V16ZM18.5 19H18V27H18.5H19V19H18.5ZM15.5 16V16.5C16.8807 16.5 18 17.6193 18 19H18.5H19C19 17.067 17.433 15.5 15.5 15.5V16ZM11 13H10.5C10.5 14.933 12.067 16.5 14 16.5V16V15.5C12.6193 15.5 11.5 14.3807 11.5 13H11Z" fill="#F58323"/>
<path d="M23.5 27C23.5 27.2761 23.7239 27.5 24 27.5C24.2761 27.5 24.5 27.2761 24.5 27H24H23.5ZM16.5 2.5H16V9H16.5H17V2.5H16.5ZM19.5 12V12.5H21V12V11.5H19.5V12ZM24 15H23.5V27H24H24.5V15H24ZM21 12V12.5C22.3807 12.5 23.5 13.6193 23.5 15H24H24.5C24.5 13.067 22.933 11.5 21 11.5V12ZM16.5 9H16C16 10.933 17.567 12.5 19.5 12.5V12V11.5C18.1193 11.5 17 10.3807 17 9H16.5Z" fill="#009F8A"/>
<path d="M29 27C29 26.2 29 8.66667 29 0" stroke="#BB3F3F"/>
<path d="M34.5 27C34.5 27.2761 34.2761 27.5 34 27.5C33.7239 27.5 33.5 27.2761 33.5 27H34H34.5ZM41.5 2H42V8.5H41.5H41V2H41.5ZM38.5 11.5V12H37V11.5V11H38.5V11.5ZM34 14.5H34.5V27H34H33.5V14.5H34ZM37 11.5V12C35.6193 12 34.5 13.1193 34.5 14.5H34H33.5C33.5 12.567 35.067 11 37 11V11.5ZM41.5 8.5H42C42 10.433 40.433 12 38.5 12V11.5V11C39.8807 11 41 9.88071 41 8.5H41.5Z" fill="#009F8A"/>
<path d="M40 27C40 27.2761 39.7761 27.5 39.5 27.5C39.2239 27.5 39 27.2761 39 27H39.5H40ZM47 6.5H47.5V13H47H46.5V6.5H47ZM44 16V16.5H42.5V16V15.5H44V16ZM39.5 19H40V27H39.5H39V19H39.5ZM42.5 16V16.5C41.1193 16.5 40 17.6193 40 19H39.5H39C39 17.067 40.567 15.5 42.5 15.5V16ZM47 13H47.5C47.5 14.933 45.933 16.5 44 16.5V16V15.5C45.3807 15.5 46.5 14.3807 46.5 13H47Z" fill="#F58323"/>
<path d="M18 29C18 28.7239 18.2239 28.5 18.5 28.5C18.7761 28.5 19 28.7239 19 29H18.5H18ZM11 49.5H10.5V43H11H11.5V49.5H11ZM14 40V39.5H15.5V40V40.5H14V40ZM18.5 37H18V29H18.5H19V37H18.5ZM15.5 40V39.5C16.8807 39.5 18 38.3807 18 37H18.5H19C19 38.933 17.433 40.5 15.5 40.5V40ZM11 43H10.5C10.5 41.067 12.067 39.5 14 39.5V40V40.5C12.6193 40.5 11.5 41.6193 11.5 43H11Z" fill="#F58323"/>
<path d="M23.5 29C23.5 28.7239 23.7239 28.5 24 28.5C24.2761 28.5 24.5 28.7239 24.5 29H24H23.5ZM16.5 53.5H16V47H16.5H17V53.5H16.5ZM19.5 44V43.5H21V44V44.5H19.5V44ZM24 41H23.5V29H24H24.5V41H24ZM21 44V43.5C22.3807 43.5 23.5 42.3807 23.5 41H24H24.5C24.5 42.933 22.933 44.5 21 44.5V44ZM16.5 47H16C16 45.067 17.567 43.5 19.5 43.5V44V44.5C18.1193 44.5 17 45.6193 17 47H16.5Z" fill="#009F8A"/>
<path d="M29 29C29 29.8 29 47.3333 29 56" stroke="#BB3F3F"/>
<path d="M34.5 29C34.5 28.7239 34.2761 28.5 34 28.5C33.7239 28.5 33.5 28.7239 33.5 29H34H34.5ZM41.5 54H42V47.5H41.5H41V54H41.5ZM38.5 44.5V44H37V44.5V45H38.5V44.5ZM34 41.5H34.5V29H34H33.5V41.5H34ZM37 44.5V44C35.6193 44 34.5 42.8807 34.5 41.5H34H33.5C33.5 43.433 35.067 45 37 45V44.5ZM41.5 47.5H42C42 45.567 40.433 44 38.5 44V44.5V45C39.8807 45 41 46.1193 41 47.5H41.5Z" fill="#009F8A"/>
<path d="M40 29C40 28.7239 39.7761 28.5 39.5 28.5C39.2239 28.5 39 28.7239 39 29H39.5H40ZM47 49.5H47.5V43H47H46.5V49.5H47ZM44 40V39.5H42.5V40V40.5H44V40ZM39.5 37H40V29H39.5H39V37H39.5ZM42.5 40V39.5C41.1193 39.5 40 38.3807 40 37H39.5H39C39 38.933 40.567 40.5 42.5 40.5V40ZM47 43H47.5C47.5 41.067 45.933 39.5 44 39.5V40V40.5C45.3807 40.5 46.5 41.6193 46.5 43H47Z" fill="#F58323"/>
<circle cx="29" cy="27" r="13.5" fill="#262E5B" stroke="#FDB913"/>
<path d="M32.0015 23.1883C32.0015 23.1883 32.503 19.5 29.0015 19.5C25.5 19.5 26.0015 23.1883 26.0015 23.1883" stroke="#FDB913"/>
<path d="M28.9912 26C29.5811 26.0002 30.0595 26.4784 30.0596 27.0684C30.0596 27.5232 29.7745 27.9102 29.374 28.0645L29.5264 30.8086H28.458L28.6104 28.0654C28.2086 27.9118 27.9219 27.5241 27.9219 27.0684C27.922 26.4784 28.4013 26.0002 28.9912 26Z" fill="#FDB913"/>
<path d="M31 34H27C25.3431 34 24 32.6569 24 31V26C24 24.3431 25.3431 23 27 23H31C32.6569 23 34 24.3431 34 26V31C34 32.6569 32.6569 34 31 34Z" stroke="#FDB913"/>
</svg>
