<svg width="56" height="56" viewBox="0 0 56 56" fill="none" xmlns="http://www.w3.org/2000/svg">
<circle cx="13.5" cy="10.5" r="2" stroke="#BB3F3F"/>
<path d="M10 17V15.6019C10 14.1089 11.0978 12.8432 12.5757 12.632L13.0757 12.5606C13.3572 12.5204 13.6428 12.5204 13.9243 12.5606L14.4243 12.632C15.9022 12.8432 17 14.1089 17 15.6019V17" stroke="#BB3F3F"/>
<circle cx="42.5" cy="10.5" r="2" stroke="#009F8A"/>
<path d="M39 17V15.6019C39 14.1089 40.0978 12.8432 41.5757 12.632L42.0757 12.5606C42.3572 12.5204 42.6428 12.5204 42.9243 12.5606L43.4243 12.632C44.9022 12.8432 46 14.1089 46 15.6019V17" stroke="#009F8A"/>
<circle cx="13.5" cy="41.5" r="2" stroke="#FFFBDD"/>
<path d="M10 48V46.6019C10 45.1089 11.0978 43.8432 12.5757 43.632L13.0757 43.5606C13.3572 43.5204 13.6428 43.5204 13.9243 43.5606L14.4243 43.632C15.9022 43.8432 17 45.1089 17 46.6019V48" stroke="#FFFBDD"/>
<circle cx="42.5" cy="41.5" r="2" stroke="#F58323"/>
<path d="M39 48V46.6019C39 45.1089 40.0978 43.8432 41.5757 43.632L42.0757 43.5606C42.3572 43.5204 42.6428 43.5204 42.9243 43.5606L43.4243 43.632C44.9022 43.8432 46 45.1089 46 46.6019V48" stroke="#F58323"/>
<path d="M28.0469 20C33.0155 20 37.0433 21.1507 37.0439 22.5703C37.0439 22.6132 37.0395 22.6558 37.0322 22.6982H37.0938V26.5176H37.0947C37.0947 26.5248 37.0939 26.5319 37.0938 26.5391V30.3467H37.0947C37.0947 30.3516 37.0938 30.3565 37.0938 30.3613V32.0635C37.0938 34.1788 35.6256 36.0416 33.5566 36.5088C31.9093 36.8805 30.3624 37.1435 28.0469 37.1436C26.2161 37.1435 24.0663 36.8053 22.3789 36.4697C20.358 36.0678 19 34.2629 19 32.2393V22.6982H19.0615C19.0542 22.6558 19.0498 22.6132 19.0498 22.5703C19.0504 21.1508 23.0783 20 28.0469 20ZM20 32.2393C20 33.823 21.0561 35.1873 22.5732 35.4893C24.2429 35.8213 26.3161 36.1435 28.0469 36.1436C30.2685 36.1435 31.7388 35.8936 33.3359 35.5332C34.9433 35.1703 36.0938 33.7172 36.0938 32.0635V31.833C35.6302 32.1274 35.0236 32.3731 34.3193 32.5723C32.7436 33.0178 30.5554 33.2715 28.0439 33.2715H28.042C25.5382 33.2584 23.3614 32.9997 21.791 32.5586C21.0784 32.3584 20.4661 32.1119 20 31.8193V32.2393ZM36.0938 27.999C35.6297 28.2914 35.0223 28.5342 34.3174 28.7305C32.7421 29.169 30.5544 29.416 28.0439 29.416C25.5337 29.416 23.3483 29.169 21.7744 28.7305C21.0705 28.5343 20.4635 28.2912 20 27.999V30.3613L20.0049 30.4053C20.0256 30.5183 20.1215 30.6935 20.4365 30.9111C20.7878 31.1538 21.3312 31.3905 22.0615 31.5957C23.5161 32.0043 25.5955 32.2576 28.0449 32.2705C30.5019 32.2704 32.59 32.0222 34.0469 31.6104C34.7786 31.4035 35.3205 31.164 35.668 30.917C36.0093 30.6743 36.0889 30.4809 36.0938 30.3584V27.999ZM36.0938 23.7197C34.6161 24.5619 31.568 25.1416 28.0469 25.1416L27.127 25.1279C24.0006 25.0372 21.3475 24.4883 20 23.7207V26.5176L20.0039 26.5664C20.0228 26.6885 20.1175 26.8661 20.4248 27.083C20.7714 27.3275 21.3121 27.5639 22.043 27.7676C23.4988 28.1732 25.5859 28.416 28.0439 28.416C30.5022 28.416 32.5914 28.1733 34.0488 27.7676C34.7804 27.5639 35.3218 27.3275 35.6689 27.083C36.0097 26.8428 36.0889 26.651 36.0938 26.5293V23.7197ZM28.0469 21C25.6282 21 23.476 21.2817 21.96 21.7148C21.1952 21.9334 20.6485 22.1741 20.3164 22.3984C20.2104 22.4701 20.1442 22.5287 20.1025 22.5703C20.1442 22.6119 20.2104 22.6705 20.3164 22.7422C20.6485 22.9665 21.1953 23.2083 21.96 23.4268C23.4759 23.8599 25.6284 24.1416 28.0469 24.1416C30.4655 24.1416 32.6187 23.8599 34.1348 23.4268C34.8992 23.2083 35.4453 22.9664 35.7773 22.7422C35.883 22.6708 35.9485 22.6119 35.9902 22.5703C35.9485 22.5287 35.8828 22.4697 35.7773 22.3984C35.4453 22.1742 34.8991 21.9333 34.1348 21.7148C32.6187 21.2817 30.4656 21 28.0469 21Z" fill="#FDB913"/>
<path d="M35.5 9H20.5" stroke="#009F8A"/>
<path d="M10 20L10 35" stroke="#BB3F3F"/>
<path d="M46 20L46 35" stroke="#F58323"/>
<path d="M35.5 48H20.5" stroke="white"/>
</svg>
