<svg width="56" height="56" viewBox="0 0 56 56" fill="none" xmlns="http://www.w3.org/2000/svg">
<path d="M29 18.5C34.2467 18.5 38.5 22.7533 38.5 28C38.5 33.2467 34.2467 37.5 29 37.5C23.7533 37.5 19.5 33.2467 19.5 28C19.5 22.7533 23.7533 18.5 29 18.5Z" fill="#262E5B" stroke="#FDB913"/>
<path d="M29 29V21" stroke="#FDB913" stroke-linecap="round"/>
<path d="M29 29L35 29" stroke="#FDB913" stroke-linecap="round"/>
<circle cx="29" cy="29" r="2" fill="#FDB913"/>
<path d="M28.3535 8.35355C28.5488 8.15829 28.5488 7.84171 28.3535 7.64645L25.1716 4.46447C24.9763 4.2692 24.6597 4.2692 24.4645 4.46447C24.2692 4.65973 24.2692 4.97631 24.4645 5.17157L27.2929 8L24.4645 10.8284C24.2692 11.0237 24.2692 11.3403 24.4645 11.5355C24.6597 11.7308 24.9763 11.7308 25.1716 11.5355L28.3535 8.35355ZM9 25.5L9.5 25.5C9.5 23.1233 10.705 18.8566 13.6404 15.1873C16.5578 11.5406 21.1705 8.5 28 8.5V8V7.5C20.8295 7.5 15.9422 10.7094 12.8596 14.5627C9.79498 18.3934 8.5 22.8767 8.5 25.5L9 25.5Z" fill="#009F8A"/>
<path d="M29.6465 48.1464C29.4512 48.3417 29.4512 48.6583 29.6465 48.8536L32.8284 52.0355C33.0237 52.2308 33.3403 52.2308 33.5355 52.0355C33.7308 51.8403 33.7308 51.5237 33.5355 51.3284L30.7071 48.5L33.5355 45.6716C33.7308 45.4763 33.7308 45.1597 33.5355 44.9645C33.3403 44.7692 33.0237 44.7692 32.8284 44.9645L29.6465 48.1464ZM49 31L48.5 31C48.5 33.3767 47.295 37.6434 44.3596 41.3127C41.4422 44.9594 36.8295 48 30 48V48.5V49C37.1705 49 42.0578 45.7906 45.1404 41.9373C48.205 38.1066 49.5 33.6233 49.5 31L49 31Z" fill="#009F8A"/>
<path d="M9.35355 28.6465C9.15829 28.4512 8.84171 28.4512 8.64645 28.6465L5.46447 31.8284C5.2692 32.0237 5.2692 32.3403 5.46447 32.5355C5.65973 32.7308 5.97631 32.7308 6.17157 32.5355L9 29.7071L11.8284 32.5355C12.0237 32.7308 12.3403 32.7308 12.5355 32.5355C12.7308 32.3403 12.7308 32.0237 12.5355 31.8284L9.35355 28.6465ZM26.5 48.5L26.5 48C24.1347 48 19.8699 46.6782 16.1951 43.6159C12.5427 40.5722 9.5 35.8315 9.5 29L9 29L8.5 29C8.5 36.1685 11.7073 41.1778 15.5549 44.3841C19.3801 47.5718 23.8653 49 26.5 49L26.5 48.5Z" fill="#F58323"/>
<path d="M48.6464 27.7196C48.8417 27.9148 49.1583 27.9148 49.3536 27.7196L52.5355 24.5376C52.7308 24.3423 52.7308 24.0257 52.5355 23.8305C52.3403 23.6352 52.0237 23.6352 51.8284 23.8305L49 26.6589L46.1716 23.8305C45.9763 23.6352 45.6597 23.6352 45.4645 23.8305C45.2692 24.0257 45.2692 24.3423 45.4645 24.5376L48.6464 27.7196ZM31 8L31 8.5C33.3713 8.5 37.7639 9.79275 41.5632 12.8239C45.3399 15.837 48.5 20.5427 48.5 27.366L49 27.366L49.5 27.366C49.5 20.1893 46.1601 15.2121 42.1868 12.0422C38.2361 8.89025 33.6287 7.5 31 7.5L31 8Z" fill="#F58323"/>
</svg>
