<svg width="56" height="56" viewBox="0 0 56 56" fill="none" xmlns="http://www.w3.org/2000/svg">
<path d="M27.4673 7.36046L36.0293 17.5556C37.2725 19.0358 37.0205 21.1678 35.4665 22.3174L30.3045 26.136C28.7505 27.2856 26.483 27.0176 25.2399 25.5373L16.6779 15.3422C15.4348 13.862 15.6868 11.7301 17.2408 10.5805L22.4027 6.76179L22.5503 6.65866C24.0973 5.63036 26.263 5.92638 27.4673 7.36046Z" fill="#262E5B" stroke="#BB3F3F"/>
<path d="M25.0703 6L25.9695 15.6981C26.0428 16.4887 26.619 17.1645 27.4246 17.4049L37.0639 20.2812" stroke="#BB3F3F" stroke-linejoin="round"/>
<path d="M18.7295 22.5H37.2705C39.4355 22.5 41.0809 24.4461 40.7217 26.5811L37.6934 44.5811C37.4097 46.266 35.9508 47.4998 34.2422 47.5H21.7578C20.0492 47.4998 18.5903 46.266 18.3066 44.5811L15.2783 26.5811C14.9191 24.4461 16.5645 22.5 18.7295 22.5Z" fill="#262E5B" stroke="#FDB913"/>
<path d="M21 25L23.5 44" stroke="#FDB913"/>
<path d="M35.5 25L33 44" stroke="#FDB913"/>
<path d="M28.4766 25L28.4766 44.0814" stroke="#FDB913"/>
</svg>
